<svg width="132" height="71" viewBox="0 0 132 71" fill="none" xmlns="http://www.w3.org/2000/svg">
<path d="M13.4233 39.4417C20.672 39.4417 23.9449 35.088 23.9449 35.088V26.1985H15.2377V30.5521H14.5128C11.9714 30.5521 10.1592 28.7377 10.1592 26.1985C10.1592 23.6592 11.9714 21.8449 14.5128 21.8449C17.0542 21.8449 19.2288 23.8394 19.2288 23.8394L23.5825 16.9465C23.5825 16.9465 20.3162 12.9597 13.4233 12.9597C5.80556 12.9597 0 18.7609 0 26.1985C0 33.6361 5.80556 39.4417 13.4233 39.4417Z" fill="white"/>
<path d="M37.0012 13.5H27.5691V38.8968H37.0012V13.5Z" fill="white"/>
<path d="M66.0247 13.5H55.5053L52.7837 28.3752L50.0621 13.5H39.5405L46.6157 38.8968H58.9517L66.0247 13.5Z" fill="white"/>
<path d="M88.8801 31.6393H77.9961V29.8272H87.4282V22.5697H77.9961V20.7575H88.153V13.5H68.5618V38.8968H88.8801V31.6393Z" fill="white"/>
<path d="M10.1592 45.0583H0.724854V70.4552H19.9537V62.1104H10.1592V45.0583Z" fill="white"/>
<path d="M36.641 58.664C36.641 60.6584 35.3714 61.9281 33.7393 61.9281C32.1072 61.9281 30.8354 60.6584 30.8354 58.664V45.0583H21.4033V58.664C21.4033 65.9127 26.4818 70.9999 33.7393 70.9999C40.9968 70.9999 46.0731 65.9192 46.0731 58.664V45.0583H36.641V58.664Z" fill="white"/>
<path d="M67.1144 56.3048L60.9464 45.0583H50.4248V70.4552H59.8569V59.2087L66.0249 70.4552H76.5465V45.0583H67.1144V56.3048Z" fill="white"/>
<path d="M94.6837 53.4032C97.2229 53.4032 99.3998 55.3977 99.3998 55.3977L103.753 48.5049C103.753 48.5049 100.487 44.5137 93.5942 44.5137C85.9765 44.5137 80.1709 50.3192 80.1709 57.7568C80.1709 65.1945 85.9765 71 93.5942 71C100.487 71 103.753 67.0088 103.753 67.0088L99.3998 60.116C99.3998 60.116 97.2229 62.1105 94.6837 62.1105C92.1445 62.1105 90.3301 60.2961 90.3301 57.7568C90.3301 55.2176 92.1445 53.4032 94.6837 53.4032Z" fill="white"/>
<path d="M121.89 53.7656H116.087V45.0583H106.653V70.4552H116.087V61.748H121.89V70.4552H131.325V45.0583H121.89V53.7656Z" fill="white"/>
<path d="M115.913 34.7454H120.63L121.354 38.3719H131.876C131.876 38.3719 124.474 13.1223 124.438 12.9751H112.102L104.665 38.3719H115.186L115.913 34.7454ZM118.27 22.405L119.54 28.9354H117.001L118.27 22.405Z" fill="white"/>
<path d="M32.2151 9.48922C34.7906 9.48922 36.8784 7.36498 36.8784 4.74461C36.8784 2.12423 34.7906 0 32.2151 0C29.6396 0 27.5518 2.12423 27.5518 4.74461C27.5518 7.36498 29.6396 9.48922 32.2151 9.48922Z" fill="white"/>
</svg>
