<svg width="146" height="33" viewBox="0 0 146 33" fill="none" xmlns="http://www.w3.org/2000/svg">
<path d="M20.9107 14.2C18.6974 14.2 17.004 13.64 15.8307 12.52C14.6707 11.4 14.0907 9.80667 14.0907 7.74C14.0907 5.56667 14.6907 3.88667 15.8907 2.7C17.0907 1.51333 18.8307 0.919999 21.1107 0.919999C22.6174 0.919999 23.9307 1.10667 25.0507 1.48V4.24C24.0374 3.86667 22.804 3.68 21.3507 3.68C19.964 3.68 18.9507 4.00667 18.3107 4.66C17.684 5.31333 17.3707 6.34 17.3707 7.74C17.3707 9.00667 17.664 9.94667 18.2507 10.56C18.8507 11.16 19.744 11.46 20.9307 11.46C21.704 11.46 22.424 11.3533 23.0907 11.14V8.7H20.3107V6.68H25.7907V13.06C25.2707 13.3933 24.604 13.6667 23.7907 13.88C22.9774 14.0933 22.0174 14.2 20.9107 14.2ZM28.4399 1.12H31.6599V14H28.4399V1.12ZM34.2938 1.12H37.6538L40.9338 10.32L44.2338 1.12H47.6138L42.6938 14H39.2138L34.2938 1.12ZM50.2446 1.12H59.7446V3.6H53.4646V6.3H59.0046V8.82H53.4646V11.52H59.7446V14H50.2446V1.12ZM74.492 9.26L69.872 1.12H73.232L76.112 6.46L78.992 1.12H82.352L77.732 9.26V14H74.492V9.26ZM89.3037 14.2C87.1837 14.2 85.5837 13.66 84.5037 12.58C83.4237 11.5 82.8837 9.84667 82.8837 7.62C82.8837 5.28667 83.417 3.58667 84.4837 2.52C85.5503 1.45333 87.157 0.919999 89.3037 0.919999C91.437 0.919999 93.037 1.45333 94.1037 2.52C95.1837 3.58667 95.7237 5.28667 95.7237 7.62C95.7237 9.84667 95.1837 11.5 94.1037 12.58C93.0237 13.66 91.4237 14.2 89.3037 14.2ZM89.3037 11.46C90.3837 11.46 91.1703 11.1533 91.6637 10.54C92.1703 9.91333 92.4237 8.94 92.4237 7.62C92.4237 6.19333 92.177 5.18 91.6837 4.58C91.1903 3.98 90.397 3.68 89.3037 3.68C88.197 3.68 87.397 3.98 86.9037 4.58C86.4103 5.18 86.1637 6.19333 86.1637 7.62C86.1637 8.94 86.4103 9.91333 86.9037 10.54C87.4103 11.1533 88.2103 11.46 89.3037 11.46ZM104.186 14.2C102.359 14.2 100.912 13.76 99.8457 12.88C98.7924 11.9867 98.2657 10.7267 98.2657 9.1V1.12H101.486V8.8C101.486 9.69333 101.712 10.36 102.166 10.8C102.632 11.24 103.306 11.46 104.186 11.46C105.066 11.46 105.732 11.24 106.186 10.8C106.652 10.36 106.886 9.69333 106.886 8.8V1.12H110.106V9.1C110.106 10.7267 109.572 11.9867 108.506 12.88C107.452 13.76 106.012 14.2 104.186 14.2ZM113.038 1.12H119.478C120.958 1.12 122.064 1.51333 122.798 2.3C123.544 3.07333 123.918 4.15333 123.918 5.54C123.918 6.40667 123.698 7.16667 123.258 7.82C122.831 8.47333 122.231 8.96 121.458 9.28C121.631 9.42667 121.771 9.58667 121.878 9.76C121.998 9.93333 122.131 10.1867 122.278 10.52L123.798 14H120.438L118.998 10.72C118.878 10.4267 118.724 10.22 118.538 10.1C118.351 9.98 118.084 9.92 117.738 9.92H116.258V14H113.038V1.12ZM118.638 7.44C119.278 7.44 119.771 7.28 120.118 6.96C120.464 6.64 120.638 6.16667 120.638 5.54C120.638 4.24667 120.018 3.6 118.778 3.6H116.258V7.44H118.638ZM0.982891 19.12H4.20289V29.52H10.2829V32H0.982891V19.12ZM17.6466 32.2C15.82 32.2 14.3733 31.76 13.3066 30.88C12.2533 29.9867 11.7266 28.7267 11.7266 27.1V19.12H14.9466V26.8C14.9466 27.6933 15.1733 28.36 15.6266 28.8C16.0933 29.24 16.7666 29.46 17.6466 29.46C18.5266 29.46 19.1933 29.24 19.6466 28.8C20.1133 28.36 20.3466 27.6933 20.3466 26.8V19.12H23.5666V27.1C23.5666 28.7267 23.0333 29.9867 21.9666 30.88C20.9133 31.76 19.4733 32.2 17.6466 32.2ZM26.4985 19.12H29.2585L34.7385 26.82V19.12H37.9785V32H35.1985L29.7185 24.32V32H26.4985V19.12ZM47.5341 32.2C45.3075 32.2 43.5941 31.6267 42.3941 30.48C41.2075 29.3333 40.6141 27.7267 40.6141 25.66C40.6141 23.4867 41.1941 21.82 42.3541 20.66C43.5141 19.5 45.2341 18.92 47.5141 18.92C48.2608 18.92 48.9408 18.98 49.5541 19.1C50.1808 19.2067 50.8008 19.3667 51.4141 19.58V22.4C50.2541 21.92 49.0341 21.68 47.7541 21.68C46.4208 21.68 45.4408 22 44.8141 22.64C44.2008 23.28 43.8941 24.2867 43.8941 25.66C43.8941 26.9533 44.2141 27.9133 44.8541 28.54C45.5075 29.1533 46.4875 29.46 47.7941 29.46C49.0875 29.46 50.3008 29.2267 51.4341 28.76V31.6C50.2608 32 48.9608 32.2 47.5341 32.2ZM54.0649 19.12H57.2849V24.22H62.3249V19.12H65.5449V32H62.3249V26.9H57.2849V32H54.0649V19.12ZM76.5727 19.12H79.7527L83.2527 26.26L86.7327 19.12H89.8927V32H86.6727V24.6L84.1327 29.8H82.3527L79.7927 24.6V32H76.5727V19.12ZM98.2412 32.2C96.1212 32.2 94.5212 31.66 93.4412 30.58C92.3612 29.5 91.8212 27.8467 91.8212 25.62C91.8212 23.2867 92.3545 21.5867 93.4212 20.52C94.4878 19.4533 96.0945 18.92 98.2412 18.92C100.375 18.92 101.975 19.4533 103.041 20.52C104.121 21.5867 104.661 23.2867 104.661 25.62C104.661 27.8467 104.121 29.5 103.041 30.58C101.961 31.66 100.361 32.2 98.2412 32.2ZM98.2412 29.46C99.3212 29.46 100.108 29.1533 100.601 28.54C101.108 27.9133 101.361 26.94 101.361 25.62C101.361 24.1933 101.115 23.18 100.621 22.58C100.128 21.98 99.3345 21.68 98.2412 21.68C97.1345 21.68 96.3345 21.98 95.8412 22.58C95.3478 23.18 95.1012 24.1933 95.1012 25.62C95.1012 26.94 95.3478 27.9133 95.8412 28.54C96.3478 29.1533 97.1478 29.46 98.2412 29.46ZM107.303 19.12H110.063L115.543 26.82V19.12H118.783V32H116.003L110.523 24.32V32H107.303V19.12ZM121.819 19.12H131.319V21.6H125.039V24.3H130.579V26.82H125.039V29.52H131.319V32H121.819V19.12ZM137.566 27.26L132.946 19.12H136.306L139.186 24.46L142.066 19.12H145.426L140.806 27.26V32H137.566V27.26Z" fill="black"/>
</svg>
